<?xml version="1.0" encoding="UTF-8" standalone="no"?>
<!-- Created with Inkscape (http://www.inkscape.org/) -->

<svg
   width="210mm"
   height="297mm"
   viewBox="0 0 210 297"
   version="1.1"
   id="svg1"
   inkscape:version="1.3.2 (091e20e, 2023-11-25, custom)"
   sodipodi:docname="RepNCSP.svg"
   xmlns:inkscape="http://www.inkscape.org/namespaces/inkscape"
   xmlns:sodipodi="http://sodipodi.sourceforge.net/DTD/sodipodi-0.dtd"
   xmlns="http://www.w3.org/2000/svg"
   xmlns:svg="http://www.w3.org/2000/svg">
  <sodipodi:namedview
     id="namedview1"
     pagecolor="#ffffff"
     bordercolor="#000000"
     borderopacity="0.25"
     inkscape:showpageshadow="2"
     inkscape:pageopacity="0.0"
     inkscape:pagecheckerboard="0"
     inkscape:deskcolor="#d1d1d1"
     inkscape:document-units="mm"
     inkscape:zoom="1.4093294"
     inkscape:cx="514.42906"
     inkscape:cy="592.12559"
     inkscape:window-width="1920"
     inkscape:window-height="1001"
     inkscape:window-x="-9"
     inkscape:window-y="-9"
     inkscape:window-maximized="1"
     inkscape:current-layer="layer1" />
  <defs
     id="defs1">
    <clipPath
       clipPathUnits="userSpaceOnUse"
       id="clipEmfPath1">
      <path
         d="M 26.324409,26.324409 L 469.32661,26.324409 L 469.32661,727.30583 L 26.324409,727.30583 z"
         id="path1" />
    </clipPath>
    <pattern
       id="EMFhbasepattern"
       patternUnits="userSpaceOnUse"
       width="6"
       height="6"
       x="0"
       y="0" />
    <clipPath
       clipPathUnits="userSpaceOnUse"
       id="clipEmfPath1-1">
      <path
         d="M -13.538268,26.324409 L 358.01197,26.324409 L 358.01197,622.00819 L -13.538268,622.00819 z"
         id="path1-1" />
    </clipPath>
    <pattern
       id="EMFhbasepattern-9"
       patternUnits="userSpaceOnUse"
       width="6"
       height="6"
       x="0"
       y="0" />
    <pattern
       id="EMFhbasepattern-4"
       patternUnits="userSpaceOnUse"
       width="6"
       height="6"
       x="0"
       y="0" />
  </defs>
  <g
     inkscape:label="图层 1"
     inkscape:groupmode="layer"
     id="layer1">
    <text
       xml:space="preserve"
       style="font-style:normal;font-variant:normal;font-weight:700;font-size:6.14309px;line-height:125%;font-family:Arial;text-align:start;letter-spacing:0px;word-spacing:0px;text-anchor:start;fill:#000000;fill-opacity:1;stroke:none;stroke-width:0.47946"
       x="68.965836"
       y="42.513592"
       id="text2"
       transform="scale(1.0434734,0.95833778)"><tspan
         sodipodi:role="line"
         x="68.965836"
         y="42.513592"
         id="tspan2"
         style="stroke-width:0.47946"><tspan
           dx="0"
           dy="0"
           style="font-style:normal;font-variant:normal;font-weight:700;font-size:6.14309px;font-family:Arial;fill:#7030a0;stroke-width:0.47946"
           id="tspan1">Input, shape=[B,C,H,W]</tspan></tspan></text>
    <path
       style="fill:#ffffff;fill-opacity:1;fill-rule:evenodd;stroke:none;stroke-width:0.47946"
       d="M 95.488396,15.982015 V 27.732107 H 115.43188 V 15.982015 Z"
       id="path2" />
    <path
       style="fill:none;stroke:#41719c;stroke-width:1.50425px;stroke-linecap:butt;stroke-linejoin:miter;stroke-miterlimit:8;stroke-dasharray:none;stroke-opacity:1"
       clip-path="url(#clipEmfPath1-1)"
       d="m 152.30551,26.700472 h 39.86268 v 25.572284 h -39.86268 z"
       id="path3"
       transform="matrix(0.50030467,0,0,0.45948545,19.289236,3.7135363)" />
    <path
       style="fill:#ffffff;fill-opacity:1;fill-rule:evenodd;stroke:none;stroke-width:0.47946"
       d="M 93.230643,18.401151 V 29.805653 H 112.79784 V 18.401151 Z"
       id="path4" />
    <path
       style="fill:none;stroke:#41719c;stroke-width:1.50425px;stroke-linecap:butt;stroke-linejoin:miter;stroke-miterlimit:8;stroke-dasharray:none;stroke-opacity:1"
       clip-path="url(#clipEmfPath1-1)"
       d="m 147.79276,31.965354 h 39.11055 v 24.820158 h -39.11055 z"
       id="path5"
       transform="matrix(0.50030467,0,0,0.45948545,19.289236,3.7135363)" />
    <path
       style="fill:#ffffff;fill-opacity:1;fill-rule:evenodd;stroke:none;stroke-width:0.47946"
       d="M 90.220306,20.474697 V 31.879198 H 110.16379 V 20.474697 Z"
       id="path6" />
    <path
       style="fill:none;stroke:#41719c;stroke-width:1.50425px;stroke-linecap:butt;stroke-linejoin:miter;stroke-miterlimit:8;stroke-dasharray:none;stroke-opacity:1"
       clip-path="url(#clipEmfPath1-1)"
       d="m 141.77575,36.47811 h 39.86268 v 24.820158 h -39.86268 z"
       id="path7"
       transform="matrix(0.50030467,0,0,0.45948545,19.289236,3.7135363)" />
    <path
       style="fill:#ffffff;fill-opacity:1;fill-rule:evenodd;stroke:none;stroke-width:0.47946"
       d="M 87.962553,22.893834 V 34.298335 H 107.90604 V 22.893834 Z"
       id="path8" />
    <path
       style="fill:none;stroke:#41719c;stroke-width:1.50425px;stroke-linecap:butt;stroke-linejoin:miter;stroke-miterlimit:8;stroke-dasharray:none;stroke-opacity:1"
       clip-path="url(#clipEmfPath1-1)"
       d="m 137.26299,41.742992 h 39.86268 V 66.56315 h -39.86268 z"
       id="path9"
       transform="matrix(0.50030467,0,0,0.45948545,19.289236,3.7135363)" />
    <path
       style="fill:#000000;fill-opacity:1;fill-rule:nonzero;stroke:#000000;stroke-width:0.0225384px;stroke-linecap:butt;stroke-linejoin:round;stroke-miterlimit:10;stroke-dasharray:none;stroke-opacity:1"
       d="M 95.676542,44.01808 75.780085,59.267286 76.015277,59.526479 95.911715,44.298872 Z M 75.16862,57.690523 73.475305,61.23283 77.590996,60.347249 Z"
       id="path10" />
    <path
       style="fill:#000000;fill-opacity:1;fill-rule:nonzero;stroke:#000000;stroke-width:0.0225384px;stroke-linecap:butt;stroke-linejoin:round;stroke-miterlimit:10;stroke-dasharray:none;stroke-opacity:1"
       d="m 113.10358,44.363671 21.28403,14.925201 -0.21167,0.280797 -21.28403,-14.925206 z m 21.82494,13.348456 1.83442,3.477496 -4.11569,-0.734372 z"
       id="path11" />
    <text
       xml:space="preserve"
       style="font-style:normal;font-variant:normal;font-weight:400;font-size:10.8178px;line-height:125%;font-family:等线;text-align:start;letter-spacing:0px;word-spacing:0px;text-anchor:start;fill:#000000;fill-opacity:1;stroke:none;stroke-width:0.47946"
       x="161.88927"
       y="79.859673"
       id="text12"
       transform="scale(1.0434734,0.95833778)"><tspan
         sodipodi:role="line"
         x="161.88927"
         y="79.859673"
         id="tspan12"
         style="stroke-width:0.47946"><tspan
           dx="0"
           dy="0"
           style="font-style:normal;font-variant:normal;font-weight:400;font-size:10.8178px;font-family:等线;fill:#00b050;stroke-width:0.47946"
           id="tspan11">CV1</tspan></tspan></text>
    <path
       style="fill:#00b050;fill-opacity:1;fill-rule:nonzero;stroke:#00b050;stroke-width:0.0225384px;stroke-linecap:butt;stroke-linejoin:round;stroke-miterlimit:4;stroke-dasharray:none;stroke-opacity:1"
       d="m 106.40087,78.015595 v -3.110319 h 1.12888 v 3.110319 z m 0,-4.147091 v -3.110319 h 1.12888 v 3.110319 z m 0,-4.147092 v -3.110318 h 1.12888 v 3.110318 z m 0,-4.147091 v -3.110319 h 1.12888 v 3.110319 z m 0,-4.147092 v -3.110318 h 1.12888 v 3.110318 z m 0,-4.147091 v -2.246341 h 2.06961 v 1.036773 h -1.50517 l 0.56444,-0.518387 v 1.727955 z m 3.19848,-2.246341 h 3.38663 v 1.036773 h -3.38663 z m 4.51551,0 h 3.38663 v 1.036773 h -3.38663 z m 4.5155,0 h 3.38663 v 1.036773 h -3.38663 z m 4.51551,0 h 3.38663 v 1.036773 h -3.38663 z m 4.51551,0 h 3.38662 v 1.036773 h -3.38662 z m 4.5155,0 h 3.38663 v 1.036773 h -3.38663 z m 4.51551,0 h 3.38663 v 1.036773 h -3.38663 z m 4.5155,0 h 3.38663 v 1.036773 h -3.38663 z m 4.51551,0 h 3.38663 v 1.036773 h -3.38663 z m 4.5155,0 h 3.38663 v 1.036773 h -3.38663 z m 4.51551,0 h 3.38663 v 1.036773 h -3.38663 z m 4.51551,0 h 3.38663 v 1.036773 h -3.38663 z m 4.5155,0 h 3.57478 v 0.863977 h -1.12888 v -0.345591 l 0.56444,0.518387 h -3.01034 z m 3.57478,1.90075 v 3.110319 h -1.12888 v -3.110319 z m 0,4.147092 v 3.110318 h -1.12888 v -3.110318 z m 0,4.147091 v 3.110318 h -1.12888 V 65.22873 Z m 0,4.147091 v 3.110319 h -1.12888 v -3.110319 z m 0,4.147092 v 3.110318 h -1.12888 v -3.110318 z m 0,4.147091 v 0.863977 h -3.57478 v -1.036772 h 3.01034 l -0.56444,0.518386 v -0.345591 z m -4.70365,0.863977 h -3.38663 v -1.036772 h 3.38663 z m -4.51551,0 h -3.38663 v -1.036772 h 3.38663 z m -4.51551,0 h -3.38663 v -1.036772 h 3.38663 z m -4.5155,0 h -3.38663 v -1.036772 h 3.38663 z m -4.51551,0 h -3.38663 v -1.036772 h 3.38663 z m -4.5155,0 h -3.38663 v -1.036772 h 3.38663 z m -4.51551,0 h -3.38663 v -1.036772 h 3.38663 z m -4.51551,0 h -3.38662 v -1.036772 h 3.38662 z m -4.5155,0 h -3.38663 v -1.036772 h 3.38663 z m -4.51551,0 h -3.38663 v -1.036772 h 3.38663 z m -4.5155,0 h -3.38663 v -1.036772 h 3.38663 z m -4.51551,0 h -3.38663 v -1.036772 h 3.38663 z m -4.5155,0 h -1.50517 v -1.036772 h 1.50517 z"
       id="path12" />
    <text
       xml:space="preserve"
       style="font-style:normal;font-variant:normal;font-weight:400;font-size:10.8178px;line-height:125%;font-family:等线;text-align:start;letter-spacing:0px;word-spacing:0px;text-anchor:start;fill:#000000;fill-opacity:1;stroke:none;stroke-width:0.47946"
       x="18.502594"
       y="80.772102"
       id="text14"
       transform="scale(1.0434734,0.95833778)"><tspan
         sodipodi:role="line"
         x="18.502594"
         y="80.772102"
         id="tspan14"
         style="stroke-width:0.47946"><tspan
           dx="0"
           dy="0"
           style="font-style:normal;font-variant:normal;font-weight:400;font-size:10.8178px;font-family:等线;fill:#00b050;stroke-width:0.47946"
           id="tspan13">CV2</tspan></tspan></text>
    <text
       xml:space="preserve"
       style="font-style:normal;font-variant:normal;font-weight:400;font-size:10.8178px;line-height:125%;font-family:等线;text-align:start;letter-spacing:0px;word-spacing:0px;text-anchor:start;fill:#000000;fill-opacity:1;stroke:none;stroke-width:0.47946"
       x="131.61475"
       y="168.7583"
       id="text16"
       transform="scale(1.0434734,0.95833778)"><tspan
         sodipodi:role="line"
         x="131.61475"
         y="168.7583"
         id="tspan16"
         style="stroke-width:0.47946"><tspan
           dx="0"
           dy="0"
           style="font-style:normal;font-variant:normal;font-weight:400;font-size:10.8178px;font-family:等线;fill:#00b050;stroke-width:0.47946"
           id="tspan15">CV3</tspan></tspan></text>
    <path
       style="fill:#ed7d31;fill-opacity:1;fill-rule:evenodd;stroke:none;stroke-width:0.47946"
       d="M 112.04525,60.908843 V 74.38689 h 49.29427 V 60.908843 Z"
       id="path16" />
    <path
       style="fill:none;stroke:#ae5a21;stroke-width:0.72123px;stroke-linecap:butt;stroke-linejoin:miter;stroke-miterlimit:8;stroke-dasharray:none;stroke-opacity:1"
       d="m 112.04525,60.908843 h 49.29427 V 74.38689 h -49.29427 z"
       id="path17" />
    <text
       xml:space="preserve"
       style="font-style:normal;font-variant:normal;font-weight:400;font-size:5.4239px;line-height:125%;font-family:等线;text-align:start;letter-spacing:0px;word-spacing:0px;text-anchor:start;fill:#000000;fill-opacity:1;stroke:none;stroke-width:0.47946"
       x="126.71196"
       y="72.530739"
       id="text18"
       transform="scale(1.0434734,0.95833778)"><tspan
         sodipodi:role="line"
         x="126.71196"
         y="72.530739"
         id="tspan18"
         style="stroke-width:0.47946"><tspan
           dx="0"
           dy="0"
           style="font-style:normal;font-variant:normal;font-weight:400;font-size:5.4239px;font-family:等线;fill:#ffffff;stroke-width:0.47946"
           id="tspan17">CBS</tspan></tspan></text>
    <path
       style="fill:#7030a0;fill-opacity:1;fill-rule:evenodd;stroke:none;stroke-width:0.47946"
       d="m 112.04525,90.284074 v 13.132456 h 49.29427 V 90.284074 Z"
       id="path18" />
    <path
       style="fill:none;stroke:#ae5a21;stroke-width:0.72123px;stroke-linecap:butt;stroke-linejoin:miter;stroke-miterlimit:8;stroke-dasharray:none;stroke-opacity:1"
       d="m 112.04525,90.284074 h 49.29427 v 13.132456 h -49.29427 z"
       id="path19" />
    <text
       xml:space="preserve"
       style="font-style:normal;font-variant:normal;font-weight:400;font-size:5.4239px;line-height:125%;font-family:等线;text-align:start;letter-spacing:0px;word-spacing:0px;text-anchor:start;fill:#000000;fill-opacity:1;stroke:none;stroke-width:0.47946"
       x="111.92675"
       y="103.05497"
       id="text20"
       transform="scale(1.0434734,0.95833778)"><tspan
         sodipodi:role="line"
         x="111.92675"
         y="103.05497"
         id="tspan20"
         style="stroke-width:0.47946"><tspan
           dx="0"
           dy="0"
           style="font-style:normal;font-variant:normal;font-weight:400;font-size:5.4239px;font-family:等线;fill:#ffffff;stroke-width:0.47946"
           id="tspan19">RepNBottleNeck</tspan></tspan></text>
    <path
       style="fill:#ed7d31;fill-opacity:1;fill-rule:evenodd;stroke:none;stroke-width:0.47946"
       d="M 48.451878,60.908843 V 74.38689 H 97.746149 V 60.908843 Z"
       id="path20" />
    <path
       style="fill:none;stroke:#ae5a21;stroke-width:0.72123px;stroke-linecap:butt;stroke-linejoin:miter;stroke-miterlimit:8;stroke-dasharray:none;stroke-opacity:1"
       d="M 48.451878,60.908843 H 97.746149 V 74.38689 H 48.451878 Z"
       id="path21" />
    <text
       xml:space="preserve"
       style="font-style:normal;font-variant:normal;font-weight:400;font-size:5.4239px;line-height:125%;font-family:等线;text-align:start;letter-spacing:0px;word-spacing:0px;text-anchor:start;fill:#000000;fill-opacity:1;stroke:none;stroke-width:0.47946"
       x="65.855736"
       y="72.530739"
       id="text22"
       transform="scale(1.0434734,0.95833778)"><tspan
         sodipodi:role="line"
         x="65.855736"
         y="72.530739"
         id="tspan22"
         style="stroke-width:0.47946"><tspan
           dx="0"
           dy="0"
           style="font-style:normal;font-variant:normal;font-weight:400;font-size:5.4239px;font-family:等线;fill:#ffffff;stroke-width:0.47946"
           id="tspan21">CBS</tspan></tspan></text>
    <path
       style="fill:#a6a6a6;fill-opacity:1;fill-rule:evenodd;stroke:none;stroke-width:0.47946"
       d="m 80.813002,120.35048 v 13.13246 h 49.294268 v -13.13246 z"
       id="path22" />
    <path
       style="fill:none;stroke:#ae5a21;stroke-width:0.72123px;stroke-linecap:butt;stroke-linejoin:miter;stroke-miterlimit:8;stroke-dasharray:none;stroke-opacity:1"
       d="m 80.813002,120.35048 h 49.294268 v 13.13246 H 80.813002 Z"
       id="path23" />
    <text
       xml:space="preserve"
       style="font-style:normal;font-variant:normal;font-weight:400;font-size:5.4239px;line-height:125%;font-family:等线;text-align:start;letter-spacing:0px;word-spacing:0px;text-anchor:start;fill:#000000;fill-opacity:1;stroke:none;stroke-width:0.47946"
       x="83.062317"
       y="134.4435"
       id="text24"
       transform="scale(1.0434734,0.95833778)"><tspan
         sodipodi:role="line"
         x="83.062317"
         y="134.4435"
         id="tspan24"
         style="stroke-width:0.47946"><tspan
           dx="0"
           dy="0"
           style="font-style:normal;font-variant:normal;font-weight:400;font-size:5.4239px;font-family:等线;fill:#ffffff;stroke-width:0.47946"
           id="tspan23">Concat</tspan></tspan></text>
    <text
       xml:space="preserve"
       style="font-style:normal;font-variant:normal;font-weight:400;font-size:5.4239px;line-height:125%;font-family:等线;text-align:start;letter-spacing:0px;word-spacing:0px;text-anchor:start;fill:#000000;fill-opacity:1;stroke:none;stroke-width:0.47946"
       x="101.09306"
       y="134.4435"
       id="text26"
       transform="scale(1.0434734,0.95833778)"><tspan
         sodipodi:role="line"
         x="101.09306"
         y="134.4435"
         id="tspan26"
         style="stroke-width:0.47946"><tspan
           dx="0"
           dy="0"
           style="font-style:normal;font-variant:normal;font-weight:400;font-size:5.4239px;font-family:等线;fill:#ffffff;stroke-width:0.47946"
           id="tspan25">(dim=1)</tspan></tspan></text>
    <path
       style="fill:#000000;fill-opacity:1;fill-rule:nonzero;stroke:#000000;stroke-width:0.0225384px;stroke-linecap:butt;stroke-linejoin:round;stroke-miterlimit:4;stroke-dasharray:none;stroke-opacity:1"
       d="m 73.287159,74.559685 v 23.240988 h 22.506979 l -0.188146,-0.17279 v 20.173857 h 0.376292 V 97.455083 H 73.475305 l 0.188146,0.1728 V 74.559685 Z m 20.625518,42.680475 1.881461,3.45591 1.881461,-3.45591 z"
       id="path26" />
    <path
       style="fill:#000000;fill-opacity:1;fill-rule:nonzero;stroke:#000000;stroke-width:0.0225384px;stroke-linecap:butt;stroke-linejoin:round;stroke-miterlimit:4;stroke-dasharray:none;stroke-opacity:1"
       d="m 137.28035,103.58932 v 8.61817 h -31.44392 l 0.18815,-0.17279 v 5.55106 h -0.3763 v -5.72386 h 31.44392 l -0.18814,0.1728 v -8.44538 z m -29.56246,13.41324 -1.88146,3.45591 -1.88146,-3.45591 z"
       id="path27" />
    <path
       style="fill:#000000;fill-opacity:1;fill-rule:nonzero;stroke:#000000;stroke-width:0.0225384px;stroke-linecap:butt;stroke-linejoin:round;stroke-miterlimit:4;stroke-dasharray:none;stroke-opacity:1"
       d="m 137.25683,74.559685 v 13.175647 h -0.3763 V 74.559685 Z m 1.69331,12.592466 -1.88146,3.45591 -1.88146,-3.45591 z"
       id="path28" />
    <path
       style="fill:#ed7d31;fill-opacity:1;fill-rule:evenodd;stroke:none;stroke-width:0.47946"
       d="m 80.813002,145.92421 v 13.13246 h 49.294268 v -13.13246 z"
       id="path29" />
    <path
       style="fill:none;stroke:#ae5a21;stroke-width:0.72123px;stroke-linecap:butt;stroke-linejoin:miter;stroke-miterlimit:8;stroke-dasharray:none;stroke-opacity:1"
       d="m 80.813002,145.92421 h 49.294268 v 13.13246 H 80.813002 Z"
       id="path30" />
    <text
       xml:space="preserve"
       style="font-style:normal;font-variant:normal;font-weight:400;font-size:5.4239px;line-height:125%;font-family:等线;text-align:start;letter-spacing:0px;word-spacing:0px;text-anchor:start;fill:#000000;fill-opacity:1;stroke:none;stroke-width:0.47946"
       x="96.733078"
       y="161.04166"
       id="text31"
       transform="scale(1.0434734,0.95833778)"><tspan
         sodipodi:role="line"
         x="96.733078"
         y="161.04166"
         id="tspan31"
         style="stroke-width:0.47946"><tspan
           dx="0"
           dy="0"
           style="font-style:normal;font-variant:normal;font-weight:400;font-size:5.4239px;font-family:等线;fill:#ffffff;stroke-width:0.47946"
           id="tspan30">CBS</tspan></tspan></text>
    <path
       style="fill:#000000;fill-opacity:1;fill-rule:nonzero;stroke:#000000;stroke-width:0.0225384px;stroke-linecap:butt;stroke-linejoin:round;stroke-miterlimit:4;stroke-dasharray:none;stroke-opacity:1"
       d="m 105.31902,133.65573 -0.0234,9.41736 h 0.37629 l 0.0235,-9.41736 z m -1.71682,8.83416 1.85794,3.45591 1.90498,-3.45591 z"
       id="path31" />
    <path
       style="fill:#000000;fill-opacity:1;fill-rule:nonzero;stroke:#000000;stroke-width:0.0225384px;stroke-linecap:butt;stroke-linejoin:round;stroke-miterlimit:4;stroke-dasharray:none;stroke-opacity:1"
       d="m 95.676542,159.09986 -19.896457,15.03321 0.258715,0.28079 19.872915,-15.0332 z m -20.484399,13.47805 -1.716838,3.5207 4.115691,-0.86398 z"
       id="path32" />
    <path
       style="fill:#000000;fill-opacity:1;fill-rule:nonzero;stroke:#000000;stroke-width:0.0225384px;stroke-linecap:butt;stroke-linejoin:round;stroke-miterlimit:4;stroke-dasharray:none;stroke-opacity:1"
       d="m 113.10358,159.09986 21.28403,14.92521 -0.21167,0.28079 -21.28403,-14.9252 z m 21.82494,13.34846 1.83442,3.4775 -4.11569,-0.73438 z"
       id="path33" />
    <path
       style="fill:#ed7d31;fill-opacity:1;fill-rule:evenodd;stroke:none;stroke-width:0.47946"
       d="m 112.79784,175.99063 v 13.13245 h 49.29427 v -13.13245 z"
       id="path34" />
    <path
       style="fill:none;stroke:#ae5a21;stroke-width:0.72123px;stroke-linecap:butt;stroke-linejoin:miter;stroke-miterlimit:8;stroke-dasharray:none;stroke-opacity:1"
       d="m 112.79784,175.99063 h 49.29427 v 13.13245 h -49.29427 z"
       id="path35" />
    <text
       xml:space="preserve"
       style="font-style:normal;font-variant:normal;font-weight:400;font-size:5.4239px;line-height:125%;font-family:等线;text-align:start;letter-spacing:0px;word-spacing:0px;text-anchor:start;fill:#000000;fill-opacity:1;stroke:none;stroke-width:0.47946"
       x="127.52904"
       y="192.42238"
       id="text36"
       transform="scale(1.0434734,0.95833778)"><tspan
         sodipodi:role="line"
         x="127.52904"
         y="192.42238"
         id="tspan36"
         style="stroke-width:0.47946"><tspan
           dx="0"
           dy="0"
           style="font-style:normal;font-variant:normal;font-weight:400;font-size:5.4239px;font-family:等线;fill:#ffffff;stroke-width:0.47946"
           id="tspan35">CBS</tspan></tspan></text>
    <path
       style="fill:#ed7d31;fill-opacity:1;fill-rule:evenodd;stroke:none;stroke-width:0.47946"
       d="m 49.580754,175.99063 v 13.13245 h 49.294271 v -13.13245 z"
       id="path36" />
    <path
       style="fill:none;stroke:#ae5a21;stroke-width:0.72123px;stroke-linecap:butt;stroke-linejoin:miter;stroke-miterlimit:8;stroke-dasharray:none;stroke-opacity:1"
       d="m 49.580754,175.99063 h 49.294271 v 13.13245 H 49.580754 Z"
       id="path37" />
    <text
       xml:space="preserve"
       style="font-style:normal;font-variant:normal;font-weight:400;font-size:5.4239px;line-height:125%;font-family:等线;text-align:start;letter-spacing:0px;word-spacing:0px;text-anchor:start;fill:#000000;fill-opacity:1;stroke:none;stroke-width:0.47946"
       x="66.672798"
       y="192.42238"
       id="text38"
       transform="scale(1.0434734,0.95833778)"><tspan
         sodipodi:role="line"
         x="66.672798"
         y="192.42238"
         id="tspan38"
         style="stroke-width:0.47946"><tspan
           dx="0"
           dy="0"
           style="font-style:normal;font-variant:normal;font-weight:400;font-size:5.4239px;font-family:等线;fill:#ffffff;stroke-width:0.47946"
           id="tspan37">CBS</tspan></tspan></text>
    <path
       style="fill:#7030a0;fill-opacity:1;fill-rule:evenodd;stroke:none;stroke-width:0.47946"
       d="m 112.79784,205.02027 v 13.13245 h 49.29427 v -13.13245 z"
       id="path38" />
    <path
       style="fill:none;stroke:#ae5a21;stroke-width:0.72123px;stroke-linecap:butt;stroke-linejoin:miter;stroke-miterlimit:8;stroke-dasharray:none;stroke-opacity:1"
       d="m 112.79784,205.02027 h 49.29427 v 13.13245 h -49.29427 z"
       id="path39" />
    <text
       xml:space="preserve"
       style="font-style:normal;font-variant:normal;font-weight:400;font-size:5.4239px;line-height:125%;font-family:等线;text-align:start;letter-spacing:0px;word-spacing:0px;text-anchor:start;fill:#000000;fill-opacity:1;stroke:none;stroke-width:0.47946"
       x="112.74387"
       y="222.82239"
       id="text40"
       transform="scale(1.0434734,0.95833778)"><tspan
         sodipodi:role="line"
         x="112.74387"
         y="222.82239"
         id="tspan40"
         style="stroke-width:0.47946"><tspan
           dx="0"
           dy="0"
           style="font-style:normal;font-variant:normal;font-weight:400;font-size:5.4239px;font-family:等线;fill:#ffffff;stroke-width:0.47946"
           id="tspan39">RepNBottleNeck</tspan></tspan></text>
    <path
       style="fill:#a6a6a6;fill-opacity:1;fill-rule:evenodd;stroke:none;stroke-width:0.47946"
       d="m 80.813002,234.3955 v 13.13245 H 130.10727 V 234.3955 Z"
       id="path40" />
    <path
       style="fill:none;stroke:#ae5a21;stroke-width:0.72123px;stroke-linecap:butt;stroke-linejoin:miter;stroke-miterlimit:8;stroke-dasharray:none;stroke-opacity:1"
       d="m 80.813002,234.3955 h 49.294268 v 13.13245 H 80.813002 Z"
       id="path41" />
    <text
       xml:space="preserve"
       style="font-style:normal;font-variant:normal;font-weight:400;font-size:5.4239px;line-height:125%;font-family:等线;text-align:start;letter-spacing:0px;word-spacing:0px;text-anchor:start;fill:#000000;fill-opacity:1;stroke:none;stroke-width:0.47946"
       x="83.029716"
       y="253.47079"
       id="text42"
       transform="scale(1.0434734,0.95833778)"><tspan
         sodipodi:role="line"
         x="83.029716"
         y="253.47079"
         id="tspan42"
         style="stroke-width:0.47946"><tspan
           dx="0"
           dy="0"
           style="font-style:normal;font-variant:normal;font-weight:400;font-size:5.4239px;font-family:等线;fill:#ffffff;stroke-width:0.47946"
           id="tspan41">Concat</tspan></tspan></text>
    <text
       xml:space="preserve"
       style="font-style:normal;font-variant:normal;font-weight:400;font-size:5.4239px;line-height:125%;font-family:等线;text-align:start;letter-spacing:0px;word-spacing:0px;text-anchor:start;fill:#000000;fill-opacity:1;stroke:none;stroke-width:0.47946"
       x="101.06046"
       y="253.47079"
       id="text44"
       transform="scale(1.0434734,0.95833778)"><tspan
         sodipodi:role="line"
         x="101.06046"
         y="253.47079"
         id="tspan44"
         style="stroke-width:0.47946"><tspan
           dx="0"
           dy="0"
           style="font-style:normal;font-variant:normal;font-weight:400;font-size:5.4239px;font-family:等线;fill:#ffffff;stroke-width:0.47946"
           id="tspan43">(dim=1)</tspan></tspan></text>
    <path
       style="fill:#ed7d31;fill-opacity:1;fill-rule:evenodd;stroke:none;stroke-width:0.47946"
       d="m 80.813002,259.62364 v 13.47804 h 49.294268 v -13.47804 z"
       id="path44" />
    <path
       style="fill:none;stroke:#ae5a21;stroke-width:0.72123px;stroke-linecap:butt;stroke-linejoin:miter;stroke-miterlimit:8;stroke-dasharray:none;stroke-opacity:1"
       d="m 80.813002,259.62364 h 49.294268 v 13.47804 H 80.813002 Z"
       id="path45" />
    <text
       xml:space="preserve"
       style="font-style:normal;font-variant:normal;font-weight:400;font-size:5.4239px;line-height:125%;font-family:等线;text-align:start;letter-spacing:0px;word-spacing:0px;text-anchor:start;fill:#000000;fill-opacity:1;stroke:none;stroke-width:0.47946"
       x="96.733017"
       y="279.93066"
       id="text46"
       transform="scale(1.0434734,0.95833778)"><tspan
         sodipodi:role="line"
         x="96.733017"
         y="279.93066"
         id="tspan46"
         style="stroke-width:0.47946"><tspan
           dx="0"
           dy="0"
           style="font-style:normal;font-variant:normal;font-weight:400;font-size:5.4239px;font-family:等线;fill:#ffffff;stroke-width:0.47946"
           id="tspan45">CBS</tspan></tspan></text>
    <path
       style="fill:#000000;fill-opacity:1;fill-rule:nonzero;stroke:#000000;stroke-width:0.0225384px;stroke-linecap:butt;stroke-linejoin:round;stroke-miterlimit:4;stroke-dasharray:none;stroke-opacity:1"
       d="m 137.63312,189.29588 v 8.14299 h 0.18814 l -0.18814,-0.1728 v 5.07587 h 0.37629 v -5.24866 h -0.18815 l 0.18815,0.17279 v -7.97019 z m -1.69332,12.48446 1.88146,3.45591 1.88146,-3.45591 z"
       id="path46" />
    <path
       style="fill:#000000;fill-opacity:1;fill-rule:nonzero;stroke:#000000;stroke-width:0.0225384px;stroke-linecap:butt;stroke-linejoin:round;stroke-miterlimit:4;stroke-dasharray:none;stroke-opacity:1"
       d="m 137.79774,218.32552 v 8.27258 h -32.3376 l 0.18814,-0.1728 v 5.18387 h -0.37629 v -5.35666 h 32.3376 l -0.18814,0.17279 v -8.09978 z m -30.45614,12.72207 -1.88146,3.45591 -1.88146,-3.45591 z"
       id="path47" />
    <path
       style="fill:#000000;fill-opacity:1;fill-rule:nonzero;stroke:#000000;stroke-width:0.0225384px;stroke-linecap:butt;stroke-linejoin:round;stroke-miterlimit:4;stroke-dasharray:none;stroke-opacity:1"
       d="m 74.039744,189.29588 v 22.83061 h 20.860691 l -0.188146,-0.1728 v 19.76348 h 0.376292 V 211.78089 H 74.22789 l 0.188146,0.1728 v -22.65781 z m 18.97923,41.83811 1.881461,3.45591 1.88146,-3.45591 z"
       id="path48" />
    <path
       style="fill:#000000;fill-opacity:1;fill-rule:nonzero;stroke:#000000;stroke-width:0.0225384px;stroke-linecap:butt;stroke-linejoin:round;stroke-miterlimit:4;stroke-dasharray:none;stroke-opacity:1"
       d="m 105.64828,247.70075 v 6.26384 h -0.18814 l 0.18814,-0.17279 v 3.17511 h -0.37629 v -3.34792 h 0.18815 l -0.18815,0.17279 v -6.09103 z m 1.69332,8.70457 -1.88146,3.45591 -1.88146,-3.45591 z"
       id="path49" />
    <path
       style="fill:#000000;fill-opacity:1;fill-rule:nonzero;stroke:#000000;stroke-width:0.0470079px;stroke-linecap:butt;stroke-linejoin:round;stroke-miterlimit:4;stroke-dasharray:none;stroke-opacity:1"
       clip-path="url(#clipEmfPath1-1)"
       d="m 173.36504,587.41039 v 13.63229 h -0.37606 l 0.37606,-0.37607 v 6.91016 h -0.75213 v -7.28622 h 0.37607 l -0.37607,0.37606 v -13.25622 z m 3.38457,18.94418 -3.76063,7.52126 -3.76063,-7.52126 z"
       id="path50"
       transform="matrix(0.50030467,0,0,0.45948545,19.289236,3.7135363)" />
    <path
       style="fill:#00b050;fill-opacity:1;fill-rule:nonzero;stroke:#00b050;stroke-width:0.0225384px;stroke-linecap:butt;stroke-linejoin:round;stroke-miterlimit:4;stroke-dasharray:none;stroke-opacity:1"
       d="m 42.054911,78.361186 v -3.110319 h 1.128877 v 3.110319 z m 0,-4.147091 v -3.110319 h 1.128877 v 3.110319 z m 0,-4.147092 v -3.110318 h 1.128877 v 3.110318 z m 0,-4.147091 v -3.110319 h 1.128877 v 3.110319 z m 0,-4.147092 v -3.110318 h 1.128877 v 3.110318 z m 0,-4.147091 v -2.246341 h 2.069607 v 1.036773 h -1.505169 l 0.564439,-0.518387 v 1.727955 z m 3.198483,-2.246341 h 3.38663 v 1.036773 h -3.38663 z m 4.515506,0 h 3.386629 v 1.036773 H 49.7689 Z m 4.515506,0 h 3.386629 v 1.036773 h -3.386629 z m 4.515506,0 h 3.386629 v 1.036773 h -3.386629 z m 4.515505,0 h 3.38663 v 1.036773 h -3.38663 z m 4.515506,0 h 3.386629 v 1.036773 h -3.386629 z m 4.515506,0 h 3.386629 v 1.036773 h -3.386629 z m 4.515506,0 h 3.386629 v 1.036773 h -3.386629 z m 4.515505,0 h 3.38663 v 1.036773 h -3.38663 z m 4.515506,0 h 3.38663 v 1.036773 h -3.38663 z m 4.515506,0 h 3.386629 v 1.036773 h -3.386629 z m 4.515506,0 h 3.386629 v 1.036773 h -3.386629 z m 4.515505,0 h 3.198487 v 1.209568 h -1.12888 v -0.691182 l 0.56444,0.518387 h -2.634047 z m 3.198487,2.246341 v 3.110319 h -1.12888 v -3.110319 z m 0,4.147091 v 3.110319 h -1.12888 V 61.77282 Z m 0,4.147092 v 3.110318 h -1.12888 v -3.110318 z m 0,4.147091 v 3.110319 h -1.12888 v -3.110319 z m 0,4.147092 v 3.110318 h -1.12888 v -3.110318 z m -0.56444,4.665477 h -3.386631 v -1.036773 h 3.386631 z m -4.515507,0 h -3.38663 v -1.036773 h 3.38663 z m -4.515506,0 h -3.386629 v -1.036773 h 3.386629 z m -4.515506,0 h -3.386629 v -1.036773 h 3.386629 z m -4.515506,0 h -3.386629 v -1.036773 h 3.386629 z m -4.515505,0 h -3.38663 v -1.036773 h 3.38663 z m -4.515506,0 h -3.386629 v -1.036773 h 3.386629 z m -4.515506,0 h -3.386629 v -1.036773 h 3.386629 z m -4.515506,0 h -3.386629 v -1.036773 h 3.386629 z m -4.515505,0 h -3.38663 v -1.036773 h 3.38663 z m -4.515506,0 h -3.386629 v -1.036773 h 3.386629 z m -4.515506,0 h -3.386629 v -1.036773 h 3.386629 z m -4.515506,0 H 44.50081 v -1.036773 h 3.386629 z m -4.515505,0 h -0.752585 v -1.036773 h 0.752585 z"
       id="path51" />
    <path
       style="fill:#00b050;fill-opacity:1;fill-rule:nonzero;stroke:#00b050;stroke-width:0.0225384px;stroke-linecap:butt;stroke-linejoin:round;stroke-miterlimit:4;stroke-dasharray:none;stroke-opacity:1"
       d="m 75.16862,163.37656 v -3.11032 h 1.128876 v 3.11032 z m 0,-4.14709 v -3.11032 h 1.128876 v 3.11032 z m 0,-4.1471 v -3.11032 h 1.128876 v 3.11032 z m 0,-4.14709 v -3.11032 h 1.128876 v 3.11032 z m 0,-4.14709 v -3.11032 h 1.128876 v 3.11032 z m 0,-4.14709 v -2.24634 h 2.069607 v 1.03677 h -1.505169 l 0.564438,-0.51839 v 1.72796 z m 3.198483,-2.24634 h 3.38663 v 1.03677 h -3.38663 z m 4.515506,0 h 3.386629 v 1.03677 h -3.386629 z m 4.515506,0 h 3.386629 v 1.03677 h -3.386629 z m 4.515506,0 h 3.386629 v 1.03677 h -3.386629 z m 4.515505,0 h 3.38663 v 1.03677 h -3.38663 z m 4.515504,0 h 3.38663 v 1.03677 h -3.38663 z m 4.51551,0 h 3.38663 v 1.03677 h -3.38663 z m 4.5155,0 h 3.38663 v 1.03677 h -3.38663 z m 4.51551,0 h 3.38663 v 1.03677 h -3.38663 z m 4.51551,0 h 3.38663 v 1.03677 h -3.38663 z m 4.5155,0 h 3.38663 v 1.03677 h -3.38663 z m 4.51551,0 h 3.38663 v 1.03677 h -3.38663 z m 4.5155,0 h 3.57478 v 0.86398 h -1.12888 v -0.3456 l 0.56444,0.51839 h -3.01034 z m 3.57478,1.90075 v 3.11032 h -1.12888 v -3.11032 z m 0,4.14709 v 3.11032 h -1.12888 v -3.11032 z m 0,4.14709 v 3.11032 h -1.12888 v -3.11032 z m 0,4.14709 v 3.11032 h -1.12888 v -3.11032 z m 0,4.1471 v 3.11031 h -1.12888 v -3.11031 z m 0,4.14709 v 0.86397 h -3.57478 v -1.03677 h 3.01034 l -0.56444,0.51839 v -0.34559 z m -4.70365,0.86397 h -3.38663 v -1.03677 h 3.38663 z m -4.51551,0 h -3.38663 v -1.03677 h 3.38663 z m -4.5155,0 h -3.38663 v -1.03677 h 3.38663 z m -4.51551,0 h -3.38663 v -1.03677 h 3.38663 z m -4.51551,0 h -3.38663 v -1.03677 h 3.38663 z m -4.5155,0 h -3.38663 v -1.03677 h 3.38663 z m -4.51551,0 h -3.38663 v -1.03677 h 3.38663 z m -4.515504,0 h -3.38663 v -1.03677 h 3.38663 z m -4.515506,0 h -3.386629 v -1.03677 h 3.386629 z m -4.515506,0 h -3.386629 v -1.03677 h 3.386629 z m -4.515506,0 h -3.386629 v -1.03677 h 3.386629 z m -4.515505,0 h -3.38663 v -1.03677 h 3.38663 z m -4.515506,0 h -1.505169 v -1.03677 h 1.505169 z"
       id="path52" />
    <text
       xml:space="preserve"
       style="font-style:normal;font-variant:normal;font-weight:400;font-size:10.8178px;line-height:125%;font-family:等线;text-align:start;letter-spacing:0px;word-spacing:0px;text-anchor:start;fill:#000000;fill-opacity:1;stroke:none;stroke-width:0.47946"
       x="164.24878"
       y="200.54652"
       id="text53"
       transform="scale(1.0434734,0.95833778)"><tspan
         sodipodi:role="line"
         x="164.24878"
         y="200.54652"
         id="tspan53"
         style="stroke-width:0.47946"><tspan
           dx="0"
           dy="0"
           style="font-style:normal;font-variant:normal;font-weight:400;font-size:10.8178px;font-family:等线;fill:#00b050;stroke-width:0.47946"
           id="tspan52">CV1</tspan></tspan></text>
    <path
       style="fill:#00b050;fill-opacity:1;fill-rule:nonzero;stroke:#00b050;stroke-width:0.0225384px;stroke-linecap:butt;stroke-linejoin:round;stroke-miterlimit:4;stroke-dasharray:none;stroke-opacity:1"
       d="m 109.03491,193.78856 v -3.11032 h 1.12888 v 3.11032 z m 0,-4.14709 v -3.11032 h 1.12888 v 3.11032 z m 0,-4.14709 v -3.11032 h 1.12888 v 3.11032 z m 0,-4.14709 v -3.11032 h 1.12888 v 3.11032 z m 0,-4.14709 v -3.11032 h 1.12888 v 3.11032 z m 0,-4.1471 v -2.24634 h 2.06961 v 1.03678 h -1.50517 l 0.56444,-0.51839 v 1.72795 z m 3.19849,-2.24634 h 3.38663 v 1.03678 h -3.38663 z m 4.5155,0 h 3.38663 v 1.03678 h -3.38663 z m 4.51551,0 h 3.38663 v 1.03678 h -3.38663 z m 4.5155,0 h 3.38663 v 1.03678 h -3.38663 z m 4.51551,0 h 3.38663 v 1.03678 h -3.38663 z m 4.51551,0 h 3.38663 v 1.03678 h -3.38663 z m 4.5155,0 h 3.38663 v 1.03678 h -3.38663 z m 4.51551,0 h 3.38663 v 1.03678 h -3.38663 z m 4.5155,0 h 3.38663 v 1.03678 h -3.38663 z m 4.51551,0 h 3.38663 v 1.03678 h -3.38663 z m 4.51551,0 h 3.38662 v 1.03678 h -3.38662 z m 4.5155,0 h 3.38663 v 1.03678 h -3.38663 z m 4.51551,0 h 3.19848 v 1.20957 h -1.12888 v -0.69118 l 0.56444,0.51839 h -2.63404 z m 3.19848,2.24634 v 3.11032 h -1.12888 v -3.11032 z m 0,4.1471 v 3.11031 h -1.12888 v -3.11031 z m 0,4.14709 v 3.11032 h -1.12888 v -3.11032 z m 0,4.14709 v 3.11032 h -1.12888 v -3.11032 z m 0,4.14709 v 3.11032 h -1.12888 v -3.11032 z m -0.56444,4.66548 h -3.38663 v -1.03678 h 3.38663 z m -4.5155,0 h -3.38663 v -1.03678 h 3.38663 z m -4.51551,0 h -3.38663 v -1.03678 h 3.38663 z m -4.51551,0 h -3.38662 v -1.03678 h 3.38662 z m -4.5155,0 h -3.38663 v -1.03678 h 3.38663 z m -4.51551,0 h -3.38663 v -1.03678 h 3.38663 z m -4.5155,0 h -3.38663 v -1.03678 h 3.38663 z m -4.51551,0 h -3.38663 v -1.03678 h 3.38663 z m -4.5155,0 h -3.38663 v -1.03678 h 3.38663 z m -4.51551,0 h -3.38663 v -1.03678 h 3.38663 z m -4.51551,0 h -3.38663 v -1.03678 h 3.38663 z m -4.5155,0 h -3.38663 v -1.03678 h 3.38663 z m -4.51551,0 h -3.38663 v -1.03678 h 3.38663 z m -4.5155,0 h -0.75259 v -1.03678 h 0.75259 z"
       id="path53" />
    <text
       xml:space="preserve"
       style="font-style:normal;font-variant:normal;font-weight:400;font-size:10.8178px;line-height:125%;font-family:等线;text-align:start;letter-spacing:0px;word-spacing:0px;text-anchor:start;fill:#000000;fill-opacity:1;stroke:none;stroke-width:0.47946"
       x="19.937281"
       y="200.93176"
       id="text55"
       transform="scale(1.0434734,0.95833778)"><tspan
         sodipodi:role="line"
         x="19.937281"
         y="200.93176"
         id="tspan55"
         style="stroke-width:0.47946"><tspan
           dx="0"
           dy="0"
           style="font-style:normal;font-variant:normal;font-weight:400;font-size:10.8178px;font-family:等线;fill:#00b050;stroke-width:0.47946"
           id="tspan54">CV2</tspan></tspan></text>
    <path
       style="fill:#00b050;fill-opacity:1;fill-rule:nonzero;stroke:#00b050;stroke-width:0.0225384px;stroke-linecap:butt;stroke-linejoin:round;stroke-miterlimit:4;stroke-dasharray:none;stroke-opacity:1"
       d="m 43.56008,193.44297 v -3.11032 h 1.128876 v 3.11032 z m 0,-4.14709 v -3.11032 h 1.128876 v 3.11032 z m 0,-4.14709 v -3.11032 h 1.128876 v 3.11032 z m 0,-4.14709 v -3.11032 h 1.128876 v 3.11032 z m 0,-4.1471 v -3.11031 h 1.128876 v 3.11031 z m 0,-4.14709 v -2.24634 h 2.069606 v 1.03677 h -1.505168 l 0.564438,-0.51838 v 1.72795 z m 3.198483,-2.24634 h 3.386629 v 1.03677 h -3.386629 z m 4.515506,0 h 3.386629 v 1.03677 h -3.386629 z m 4.515505,0 h 3.38663 v 1.03677 h -3.38663 z m 4.515506,0 h 3.38663 v 1.03677 h -3.38663 z m 4.515506,0 h 3.386629 v 1.03677 h -3.386629 z m 4.515506,0 h 3.386629 v 1.03677 h -3.386629 z m 4.515505,0 h 3.38663 v 1.03677 h -3.38663 z m 4.515506,0 h 3.38663 v 1.03677 h -3.38663 z m 4.515506,0 h 3.386629 v 1.03677 h -3.386629 z m 4.515506,0 h 3.386629 v 1.03677 h -3.386629 z m 4.515506,0 h 3.386629 v 1.03677 h -3.386629 z m 4.515505,0 h 3.38663 v 1.03677 h -3.38663 z m 4.515504,0 h 3.19849 v 1.20957 h -1.12888 v -0.69118 l 0.56444,0.51838 h -2.63405 z m 3.19849,2.24634 v 3.11032 h -1.12888 v -3.11032 z m 0,4.14709 v 3.11032 h -1.12888 v -3.11032 z m 0,4.1471 v 3.11031 h -1.12888 v -3.11031 z m 0,4.14709 v 3.11032 h -1.12888 v -3.11032 z m 0,4.14709 v 3.11032 h -1.12888 v -3.11032 z m -0.56444,4.66548 h -3.38663 v -1.03678 h 3.38663 z m -4.515509,0 h -3.386629 v -1.03678 h 3.386629 z m -4.515505,0 h -3.38663 v -1.03678 h 3.38663 z m -4.515506,0 h -3.38663 v -1.03678 h 3.38663 z m -4.515506,0 h -3.386629 v -1.03678 h 3.386629 z m -4.515506,0 h -3.386629 v -1.03678 h 3.386629 z m -4.515505,0 h -3.38663 v -1.03678 h 3.38663 z m -4.515506,0 h -3.38663 v -1.03678 h 3.38663 z m -4.515506,0 h -3.386629 v -1.03678 h 3.386629 z m -4.515506,0 h -3.386629 v -1.03678 h 3.386629 z m -4.515506,0 H 55.03699 v -1.03678 h 3.386629 z m -4.515505,0 h -3.38663 v -1.03678 h 3.38663 z m -4.515506,0 h -3.386629 v -1.03678 h 3.386629 z m -4.515506,0 h -0.752584 v -1.03678 h 0.752584 z"
       id="path55" />
    <text
       xml:space="preserve"
       style="font-style:normal;font-variant:normal;font-weight:400;font-size:10.8178px;line-height:125%;font-family:等线;text-align:start;letter-spacing:0px;word-spacing:0px;text-anchor:start;fill:#000000;fill-opacity:1;stroke:none;stroke-width:0.47946"
       x="131.61475"
       y="287.9726"
       id="text57"
       transform="scale(1.0434734,0.95833778)"><tspan
         sodipodi:role="line"
         x="131.61475"
         y="287.9726"
         id="tspan57"
         style="stroke-width:0.47946"><tspan
           dx="0"
           dy="0"
           style="font-style:normal;font-variant:normal;font-weight:400;font-size:10.8178px;font-family:等线;fill:#00b050;stroke-width:0.47946"
           id="tspan56">CV3</tspan></tspan></text>
    <path
       style="fill:#00b050;fill-opacity:1;fill-rule:nonzero;stroke:#00b050;stroke-width:0.0470079px;stroke-linecap:butt;stroke-linejoin:round;stroke-miterlimit:4;stroke-dasharray:none;stroke-opacity:1"
       clip-path="url(#clipEmfPath1-1)"
       d="m 111.69071,596.43591 v -6.76914 h 2.25638 v 6.76914 z m 0,-9.02552 v -6.76913 h 2.25638 v 6.76913 z m 0,-9.02551 v -6.76913 h 2.25638 v 6.76913 z m 0,-9.02551 v -6.76913 h 2.25638 v 6.76913 z m 0,-9.02551 v -6.76914 h 2.25638 v 6.76914 z m 0,-9.02551 v -4.88882 h 4.13669 v 2.25638 h -3.0085 l 1.12819,-1.12819 v 3.76063 z m 6.39307,-4.88882 h 6.76913 v 2.25638 h -6.76913 z m 9.02551,0 h 6.76914 v 2.25638 h -6.76914 z m 9.02551,0 h 6.76914 v 2.25638 h -6.76914 z m 9.02551,0 h 6.76914 v 2.25638 h -6.76914 z m 9.02552,0 h 6.76913 v 2.25638 h -6.76913 z m 9.02551,0 h 6.76913 v 2.25638 h -6.76913 z m 9.02551,0 h 6.76913 v 2.25638 h -6.76913 z m 9.02551,0 h 6.76914 v 2.25638 h -6.76914 z m 9.02551,0 h 6.76914 v 2.25638 h -6.76914 z m 9.02552,0 h 6.76913 v 2.25638 h -6.76913 z m 9.02551,0 h 6.76913 v 2.25638 h -6.76913 z m 9.02551,0 h 6.76913 v 2.25638 h -6.76913 z m 9.02551,0 h 7.1452 v 1.88031 h -2.25638 v -0.75212 l 1.12819,1.12819 h -6.01701 z m 7.1452,4.13669 v 6.76913 h -2.25638 v -6.76913 z m 0,9.02551 v 6.76914 h -2.25638 v -6.76914 z m 0,9.02551 v 6.76914 h -2.25638 v -6.76914 z m 0,9.02552 v 6.76913 h -2.25638 v -6.76913 z m 0,9.02551 v 6.76913 h -2.25638 v -6.76913 z m 0,9.02551 v 1.88031 h -7.1452 v -2.25637 h 6.01701 l -1.12819,1.12819 v -0.75213 z m -9.40158,1.88031 h -6.76913 v -2.25637 h 6.76913 z m -9.02551,0 h -6.76913 v -2.25637 h 6.76913 z m -9.02551,0 h -6.76913 v -2.25637 h 6.76913 z m -9.02551,0 h -6.76914 v -2.25637 h 6.76914 z m -9.02551,0 h -6.76914 v -2.25637 h 6.76914 z m -9.02552,0 h -6.76913 v -2.25637 h 6.76913 z m -9.02551,0 h -6.76913 v -2.25637 h 6.76913 z m -9.02551,0 h -6.76913 v -2.25637 h 6.76913 z m -9.02551,0 h -6.76914 v -2.25637 h 6.76914 z m -9.02551,0 h -6.76914 v -2.25637 h 6.76914 z m -9.02551,0 h -6.76914 v -2.25637 h 6.76914 z m -9.02552,0 h -6.76913 v -2.25637 h 6.76913 z m -9.02551,0 h -3.0085 v -2.25637 h 3.0085 z"
       id="path57"
       transform="matrix(0.50030467,0,0,0.45948545,19.289236,3.7135363)" />
    <text
       xml:space="preserve"
       style="font-style:normal;font-variant:normal;font-weight:400;font-size:13.2294px;line-height:125%;font-family:等线;text-align:start;letter-spacing:0px;word-spacing:0px;text-anchor:start;fill:#000000;fill-opacity:1;stroke:none;stroke-width:0.586345"
       x="177.30208"
       y="93.787254"
       id="text2-1"
       transform="scale(0.9257585,1.0801953)"><tspan
         sodipodi:role="line"
         x="177.30208"
         y="93.787254"
         id="tspan2-3"
         style="stroke-width:0.586345"><tspan
           dx="0"
           dy="0"
           style="font-style:normal;font-variant:normal;font-weight:400;font-size:13.2294px;font-family:等线;fill:#7030a0;stroke-width:0.586345"
           id="tspan1-0">×</tspan></tspan></text>
    <text
       xml:space="preserve"
       style="font-style:normal;font-variant:normal;font-weight:400;font-size:13.2294px;line-height:125%;font-family:等线;text-align:start;letter-spacing:0px;word-spacing:0px;text-anchor:start;fill:#000000;fill-opacity:1;stroke:none;stroke-width:0.586345"
       x="177.32545"
       y="198.97263"
       id="text2-1-3"
       transform="scale(0.92575851,1.0801953)"><tspan
         sodipodi:role="line"
         x="177.32545"
         y="198.97263"
         id="tspan2-3-3"
         style="stroke-width:0.586345"><tspan
           dx="0"
           dy="0"
           style="font-style:normal;font-variant:normal;font-weight:400;font-size:13.2294px;font-family:等线;fill:#7030a0;stroke-width:0.586345"
           id="tspan1-0-9">×</tspan></tspan></text>
    <text
       xml:space="preserve"
       style="font-style:normal;font-variant:normal;font-weight:400;font-size:13.2294px;line-height:125%;font-family:等线;text-align:start;letter-spacing:0px;word-spacing:0px;text-anchor:start;fill:#000000;fill-opacity:1;stroke:none;stroke-width:0.586345"
       x="185.91939"
       y="92.396858"
       id="text4"
       transform="scale(0.92575851,1.0801953)"><tspan
         sodipodi:role="line"
         x="185.91939"
         y="92.396858"
         id="tspan4"
         style="stroke-width:0.586345"><tspan
           dx="0"
           dy="0"
           style="font-style:normal;font-variant:normal;font-weight:400;font-size:13.2294px;font-family:等线;fill:#7030a0;stroke-width:0.586345"
           id="tspan3">n</tspan></tspan></text>
    <text
       xml:space="preserve"
       style="font-style:normal;font-variant:normal;font-weight:400;font-size:13.2294px;line-height:125%;font-family:等线;text-align:start;letter-spacing:0px;word-spacing:0px;text-anchor:start;fill:#000000;fill-opacity:1;stroke:none;stroke-width:0.586345"
       x="185.73923"
       y="197.55675"
       id="text4-0"
       transform="scale(0.92575851,1.0801953)"><tspan
         sodipodi:role="line"
         x="185.73923"
         y="197.55675"
         id="tspan4-7"
         style="stroke-width:0.586345"><tspan
           dx="0"
           dy="0"
           style="font-style:normal;font-variant:normal;font-weight:400;font-size:13.2294px;font-family:等线;fill:#7030a0;stroke-width:0.586345"
           id="tspan3-1">n</tspan></tspan></text>
  </g>
</svg>
