<?xml version="1.0" encoding="UTF-8" standalone="no"?>
<!-- Created with Inkscape (http://www.inkscape.org/) -->

<svg
   width="210mm"
   height="297mm"
   viewBox="0 0 210 297"
   version="1.1"
   id="svg1"
   inkscape:version="1.3.2 (091e20e, 2023-11-25, custom)"
   sodipodi:docname="SPPELAN.svg"
   xmlns:inkscape="http://www.inkscape.org/namespaces/inkscape"
   xmlns:sodipodi="http://sodipodi.sourceforge.net/DTD/sodipodi-0.dtd"
   xmlns="http://www.w3.org/2000/svg"
   xmlns:svg="http://www.w3.org/2000/svg">
  <sodipodi:namedview
     id="namedview1"
     pagecolor="#ffffff"
     bordercolor="#000000"
     borderopacity="0.25"
     inkscape:showpageshadow="2"
     inkscape:pageopacity="0.0"
     inkscape:pagecheckerboard="0"
     inkscape:deskcolor="#d1d1d1"
     inkscape:document-units="mm"
     inkscape:zoom="0.7046647"
     inkscape:cx="397.3521"
     inkscape:cy="559.84073"
     inkscape:window-width="1920"
     inkscape:window-height="1001"
     inkscape:window-x="-9"
     inkscape:window-y="-9"
     inkscape:window-maximized="1"
     inkscape:current-layer="layer1" />
  <defs
     id="defs1">
    <clipPath
       clipPathUnits="userSpaceOnUse"
       id="clipEmfPath1">
      <path
         d="M 26.324409,26.324409 L 469.32661,26.324409 L 469.32661,727.30583 L 26.324409,727.30583 z"
         id="path1" />
    </clipPath>
    <pattern
       id="EMFhbasepattern"
       patternUnits="userSpaceOnUse"
       width="6"
       height="6"
       x="0"
       y="0" />
    <clipPath
       clipPathUnits="userSpaceOnUse"
       id="clipEmfPath1-8">
      <path
         d="M 28.580787,26.324409 L 391.85764,26.324409 L 391.85764,515.95843 L 28.580787,515.95843 z"
         id="path1-4" />
    </clipPath>
    <pattern
       id="EMFhbasepattern-9"
       patternUnits="userSpaceOnUse"
       width="6"
       height="6"
       x="0"
       y="0" />
  </defs>
  <g
     inkscape:label="图层 1"
     inkscape:groupmode="layer"
     id="layer1">
    <text
       xml:space="preserve"
       style="font-style:normal;font-variant:normal;font-weight:700;font-size:7.0632px;line-height:125%;font-family:Arial;text-align:start;letter-spacing:0px;word-spacing:0px;text-anchor:start;fill:#000000;fill-opacity:1;stroke:none;stroke-width:0.551275"
       x="7.4225326"
       y="53.501381"
       id="text2"
       transform="scale(1.0499155,0.95245759)"><tspan
         sodipodi:role="line"
         x="7.4225326"
         y="53.501381"
         id="tspan2"
         style="stroke-width:0.551275"><tspan
           dx="0"
           dy="0"
           style="font-style:normal;font-variant:normal;font-weight:700;font-size:7.0632px;font-family:Arial;fill:#7030a0;stroke-width:0.551275"
           id="tspan1">Input, shape=[B,C,H,W]</tspan></tspan></text>
    <path
       style="fill:#ffffff;fill-opacity:1;fill-rule:evenodd;stroke:none;stroke-width:0.551275"
       d="M 35.074849,22.72427 V 35.756488 H 58.14705 V 22.72427 Z"
       id="path2" />
    <path
       style="fill:none;stroke:#41719c;stroke-width:1.50425px;stroke-linecap:butt;stroke-linejoin:miter;stroke-miterlimit:8;stroke-dasharray:none;stroke-opacity:1"
       clip-path="url(#clipEmfPath1-8)"
       d="M 84.614173,26.700472 H 124.47685 V 51.52063 H 84.614173 Z"
       id="path3"
       transform="matrix(0.57879205,0,0,0.52506589,-13.899163,8.7047632)" />
    <path
       style="fill:#ffffff;fill-opacity:1;fill-rule:evenodd;stroke:none;stroke-width:0.551275"
       d="M 32.027578,25.48868 V 38.520898 H 55.099779 V 25.48868 Z"
       id="path4" />
    <path
       style="fill:none;stroke:#41719c;stroke-width:1.50425px;stroke-linecap:butt;stroke-linejoin:miter;stroke-miterlimit:8;stroke-dasharray:none;stroke-opacity:1"
       clip-path="url(#clipEmfPath1-8)"
       d="M 79.349291,31.965354 H 119.21197 V 56.785512 H 79.349291 Z"
       id="path5"
       transform="matrix(0.57879205,0,0,0.52506589,-13.899163,8.7047632)" />
    <path
       style="fill:#ffffff;fill-opacity:1;fill-rule:evenodd;stroke:none;stroke-width:0.551275"
       d="m 28.980306,27.463259 v 13.427134 h 23.0722 V 27.463259 Z"
       id="path6" />
    <path
       style="fill:none;stroke:#41719c;stroke-width:1.50425px;stroke-linecap:butt;stroke-linejoin:miter;stroke-miterlimit:8;stroke-dasharray:none;stroke-opacity:1"
       clip-path="url(#clipEmfPath1-8)"
       d="M 74.084409,35.725984 H 113.94709 V 61.298268 H 74.084409 Z"
       id="path7"
       transform="matrix(0.57879205,0,0,0.52506589,-13.899163,8.7047632)" />
    <path
       style="fill:#ffffff;fill-opacity:1;fill-rule:evenodd;stroke:none;stroke-width:0.551275"
       d="M 26.368358,30.622584 V 43.654802 H 49.44056 V 30.622584 Z"
       id="path8" />
    <path
       style="fill:none;stroke:#41719c;stroke-width:1.50425px;stroke-linecap:butt;stroke-linejoin:miter;stroke-miterlimit:8;stroke-dasharray:none;stroke-opacity:1"
       clip-path="url(#clipEmfPath1-8)"
       d="M 69.571654,41.742992 H 109.43433 V 66.56315 H 69.571654 Z"
       id="path9"
       transform="matrix(0.57879205,0,0,0.52506589,-13.899163,8.7047632)" />
    <text
       xml:space="preserve"
       style="font-style:normal;font-variant:normal;font-weight:400;font-size:12.4381px;line-height:125%;font-family:等线;text-align:start;letter-spacing:0px;word-spacing:0px;text-anchor:start;fill:#000000;fill-opacity:1;stroke:none;stroke-width:0.551275"
       x="77.77681"
       y="96.68605"
       id="text10"
       transform="scale(1.0499155,0.95245759)"><tspan
         sodipodi:role="line"
         x="77.77681"
         y="96.68605"
         id="tspan10"
         style="stroke-width:0.551275"><tspan
           dx="0"
           dy="0"
           style="font-style:normal;font-variant:normal;font-weight:400;font-size:12.4381px;font-family:等线;fill:#00b050;stroke-width:0.551275"
           id="tspan9">CV1</tspan></tspan></text>
    <path
       style="fill:#00b050;fill-opacity:1;fill-rule:nonzero;stroke:#00b050;stroke-width:0.0470079px;stroke-linecap:butt;stroke-linejoin:round;stroke-miterlimit:4;stroke-dasharray:none;stroke-opacity:1"
       clip-path="url(#clipEmfPath1-8)"
       d="m 40.23874,162.45921 v -6.76913 h 2.256378 v 6.76913 z m 0,-9.02551 v -6.76913 h 2.256378 v 6.76913 z m 0,-9.02551 v -6.76913 h 2.256378 v 6.76913 z m 0,-9.02551 v -6.76914 h 2.256378 v 6.76914 z m 0,-9.02551 v -6.76914 h 2.256378 v 6.76914 z m 0,-9.02552 v -5.64094 h 3.384567 v 2.25638 h -2.256378 l 1.128189,-1.12819 v 4.51275 z m 5.640945,-5.64094 h 6.769134 v 2.25638 h -6.769134 z m 9.025512,0 h 6.769134 v 2.25638 h -6.769134 z m 9.025512,0 h 6.769134 v 2.25638 h -6.769134 z m 9.025511,0 h 6.769134 v 2.25638 H 72.95622 Z m 9.025512,0 h 6.769134 v 2.25638 h -6.769134 z m 9.025512,0 h 6.769134 v 2.25638 h -6.769134 z m 9.025516,0 h 6.76913 v 2.25638 h -6.76913 z m 9.02551,0 h 6.76913 v 2.25638 h -6.76913 z m 9.02551,0 h 6.76913 v 2.25638 h -6.76913 z m 9.02551,0 h 6.76914 v 2.25638 h -6.76914 z m 9.02551,0 h 6.76914 v 2.25638 h -6.76914 z m 9.02551,0 h 6.76914 v 2.25638 h -6.76914 z m 9.02552,0 h 7.89732 v 1.12819 h -2.25638 v 0 l 1.12819,1.12819 h -6.76913 z m 7.89732,3.38457 v 6.76913 h -2.25638 v -6.76913 z m 0,9.02551 v 6.76913 h -2.25638 v -6.76913 z m 0,9.02551 v 6.76913 h -2.25638 v -6.76913 z m 0,9.02551 v 6.76913 h -2.25638 v -6.76913 z m 0,9.02551 v 6.76914 h -2.25638 v -6.76914 z m 0,9.02551 v 3.38457 h -5.64095 v -2.25638 h 4.51276 l -1.12819,1.12819 v -2.25638 z m -7.89732,3.38457 h -6.76914 v -2.25638 h 6.76914 z m -9.02552,0 h -6.76913 v -2.25638 h 6.76913 z m -9.02551,0 h -6.76913 v -2.25638 h 6.76913 z m -9.02551,0 h -6.76913 v -2.25638 h 6.76913 z m -9.02551,0 h -6.76913 v -2.25638 h 6.76913 z m -9.02551,0 h -6.76914 v -2.25638 h 6.76914 z m -9.02551,0 h -6.769138 v -2.25638 h 6.769138 z m -9.025516,0 H 84.23811 v -2.25638 h 6.769134 z m -9.025512,0 h -6.769134 v -2.25638 h 6.769134 z m -9.025512,0 h -6.769133 v -2.25638 h 6.769133 z m -9.025511,0 h -6.769134 v -2.25638 h 6.769134 z m -9.025512,0 h -6.769134 v -2.25638 h 6.769134 z m -9.025512,0 h -4.512756 v -2.25638 h 4.512756 z"
       id="path10"
       transform="matrix(0.57879205,0,0,0.52506589,-13.899163,8.7047632)" />
    <path
       style="fill:#7f6000;fill-opacity:1;fill-rule:evenodd;stroke:none;stroke-width:0.551275"
       d="m 43.78134,106.84132 v 15.0068 h 57.02751 v -15.0068 z"
       id="path11" />
    <path
       style="fill:none;stroke:#ae5a21;stroke-width:0.829257px;stroke-linecap:butt;stroke-linejoin:miter;stroke-miterlimit:8;stroke-dasharray:none;stroke-opacity:1"
       d="m 43.78134,106.84132 h 57.02751 v 15.0068 H 43.78134 Z"
       id="path12" />
    <text
       xml:space="preserve"
       style="font-style:normal;font-variant:normal;font-weight:400;font-size:6.2363px;line-height:125%;font-family:等线;text-align:start;letter-spacing:0px;word-spacing:0px;text-anchor:start;fill:#000000;fill-opacity:1;stroke:none;stroke-width:0.551275"
       x="53.434849"
       y="122.27233"
       id="text13"
       transform="scale(1.0499155,0.95245759)"><tspan
         sodipodi:role="line"
         x="53.434849"
         y="122.27233"
         id="tspan13"
         style="stroke-width:0.551275"><tspan
           dx="0"
           dy="0"
           style="font-style:normal;font-variant:normal;font-weight:400;font-size:6.2363px;font-family:等线;fill:#ffffff;stroke-width:0.551275"
           id="tspan12">Maxpool2d</tspan></tspan></text>
    <path
       style="fill:#ed7d31;fill-opacity:1;fill-rule:evenodd;stroke:none;stroke-width:0.551275"
       d="M 15.049921,73.273481 V 88.675195 H 72.077436 V 73.273481 Z"
       id="path13" />
    <path
       style="fill:none;stroke:#ae5a21;stroke-width:1.50425px;stroke-linecap:butt;stroke-linejoin:miter;stroke-miterlimit:8;stroke-dasharray:none;stroke-opacity:1"
       clip-path="url(#clipEmfPath1-8)"
       d="m 50.016378,122.9726 h 98.528502 v 29.33291 H 50.016378 Z"
       id="path14"
       transform="matrix(0.57879205,0,0,0.52506589,-13.899163,8.7047632)" />
    <text
       xml:space="preserve"
       style="font-style:normal;font-variant:normal;font-weight:400;font-size:6.2363px;line-height:125%;font-family:等线;text-align:start;letter-spacing:0px;word-spacing:0px;text-anchor:start;fill:#000000;fill-opacity:1;stroke:none;stroke-width:0.551275"
       x="36.722031"
       y="87.267441"
       id="text15"
       transform="scale(1.0499155,0.95245759)"><tspan
         sodipodi:role="line"
         x="36.722031"
         y="87.267441"
         id="tspan15"
         style="stroke-width:0.551275"><tspan
           dx="0"
           dy="0"
           style="font-style:normal;font-variant:normal;font-weight:400;font-size:6.2363px;font-family:等线;fill:#ffffff;stroke-width:0.551275"
           id="tspan14">CBS</tspan></tspan></text>
    <path
       style="fill:#a6a6a6;fill-opacity:1;fill-rule:evenodd;stroke:none;stroke-width:0.551275"
       d="m 15.049921,216.23298 v 15.00679 h 57.027515 v -15.00679 z"
       id="path15" />
    <path
       style="fill:none;stroke:#ae5a21;stroke-width:1.50425px;stroke-linecap:butt;stroke-linejoin:miter;stroke-miterlimit:8;stroke-dasharray:none;stroke-opacity:1"
       clip-path="url(#clipEmfPath1-8)"
       d="m 50.016378,395.2422 h 98.528502 v 28.58079 H 50.016378 Z"
       id="path16"
       transform="matrix(0.57879205,0,0,0.52506589,-13.899163,8.7047632)" />
    <text
       xml:space="preserve"
       style="font-style:normal;font-variant:normal;font-weight:400;font-size:6.2363px;line-height:125%;font-family:等线;text-align:start;letter-spacing:0px;word-spacing:0px;text-anchor:start;fill:#000000;fill-opacity:1;stroke:none;stroke-width:0.551275"
       x="20.907068"
       y="237.14568"
       id="text17"
       transform="scale(1.0499155,0.95245759)"><tspan
         sodipodi:role="line"
         x="20.907068"
         y="237.14568"
         id="tspan17"
         style="stroke-width:0.551275"><tspan
           dx="0"
           dy="0"
           style="font-style:normal;font-variant:normal;font-weight:400;font-size:6.2363px;font-family:等线;fill:#ffffff;stroke-width:0.551275"
           id="tspan16">Concat</tspan></tspan></text>
    <text
       xml:space="preserve"
       style="font-style:normal;font-variant:normal;font-weight:400;font-size:6.2363px;line-height:125%;font-family:等线;text-align:start;letter-spacing:0px;word-spacing:0px;text-anchor:start;fill:#000000;fill-opacity:1;stroke:none;stroke-width:0.551275"
       x="41.63847"
       y="237.14568"
       id="text19"
       transform="scale(1.0499155,0.95245759)"><tspan
         sodipodi:role="line"
         x="41.63847"
         y="237.14568"
         id="tspan19"
         style="stroke-width:0.551275"><tspan
           dx="0"
           dy="0"
           style="font-style:normal;font-variant:normal;font-weight:400;font-size:6.2363px;font-family:等线;fill:#ffffff;stroke-width:0.551275"
           id="tspan18">(dim=1)</tspan></tspan></text>
    <path
       style="fill:#000000;fill-opacity:1;fill-rule:nonzero;stroke:#000000;stroke-width:0.0259142px;stroke-linecap:butt;stroke-linejoin:round;stroke-miterlimit:4;stroke-dasharray:none;stroke-opacity:1"
       d="m 43.78134,54.514984 v 9.823531 h 0.435325 v -9.823531 z m -1.95896,9.157112 2.176623,3.949157 2.176623,-3.949157 z"
       id="path19" />
    <path
       style="fill:#000000;fill-opacity:1;fill-rule:nonzero;stroke:#000000;stroke-width:0.0259142px;stroke-linecap:butt;stroke-linejoin:round;stroke-miterlimit:4;stroke-dasharray:none;stroke-opacity:1"
       d="m 26.830874,88.082815 v 64.149125 h -0.244853 l 0.217662,-0.19745 v 60.61956 h -0.435325 v -60.81702 h 0.244854 l -0.217662,0.19746 V 88.082815 Z m 1.93177,123.929505 -2.176623,3.94915 -2.176622,-3.94915 z"
       id="path20" />
    <path
       style="fill:#000000;fill-opacity:1;fill-rule:nonzero;stroke:#000000;stroke-width:0.0259142px;stroke-linecap:butt;stroke-linejoin:round;stroke-miterlimit:4;stroke-dasharray:none;stroke-opacity:1"
       d="m 43.78134,88.872645 v 9.32989 h 28.649781 l -0.217663,-0.19746 v 5.825015 h 0.435325 v -6.022475 h -28.64978 l 0.217662,0.19747 v -9.13243 z m 26.473158,14.315705 2.176623,3.94916 2.176622,-3.94916 z"
       id="path21" />
    <path
       style="fill:#7f6000;fill-opacity:1;fill-rule:evenodd;stroke:none;stroke-width:0.551275"
       d="m 75.124708,138.03967 v 15.00679 h 57.027502 v -15.00679 z"
       id="path22" />
    <path
       style="fill:none;stroke:#ae5a21;stroke-width:0.829257px;stroke-linecap:butt;stroke-linejoin:miter;stroke-miterlimit:8;stroke-dasharray:none;stroke-opacity:1"
       d="m 75.124708,138.03967 h 57.027502 v 15.00679 H 75.124708 Z"
       id="path23" />
    <text
       xml:space="preserve"
       style="font-style:normal;font-variant:normal;font-weight:400;font-size:6.2363px;line-height:125%;font-family:等线;text-align:start;letter-spacing:0px;word-spacing:0px;text-anchor:start;fill:#000000;fill-opacity:1;stroke:none;stroke-width:0.551275"
       x="83.295746"
       y="155.12035"
       id="text24"
       transform="scale(1.0499155,0.95245759)"><tspan
         sodipodi:role="line"
         x="83.295746"
         y="155.12035"
         id="tspan24"
         style="stroke-width:0.551275"><tspan
           dx="0"
           dy="0"
           style="font-style:normal;font-variant:normal;font-weight:400;font-size:6.2363px;font-family:等线;fill:#ffffff;stroke-width:0.551275"
           id="tspan23">Maxpool2d</tspan></tspan></text>
    <path
       style="fill:#7f6000;fill-opacity:1;fill-rule:evenodd;stroke:none;stroke-width:0.551275"
       d="m 116.04521,169.63292 v 15.00679 h 57.02752 v -15.00679 z"
       id="path24" />
    <path
       style="fill:none;stroke:#ae5a21;stroke-width:0.829257px;stroke-linecap:butt;stroke-linejoin:miter;stroke-miterlimit:8;stroke-dasharray:none;stroke-opacity:1"
       d="m 116.04521,169.63292 h 57.02752 v 15.00679 h -57.02752 z"
       id="path25" />
    <text
       xml:space="preserve"
       style="font-style:normal;font-variant:normal;font-weight:400;font-size:6.2363px;line-height:125%;font-family:等线;text-align:start;letter-spacing:0px;word-spacing:0px;text-anchor:start;fill:#000000;fill-opacity:1;stroke:none;stroke-width:0.551275"
       x="122.44567"
       y="188.17592"
       id="text26"
       transform="scale(1.0499155,0.95245759)"><tspan
         sodipodi:role="line"
         x="122.44567"
         y="188.17592"
         id="tspan26"
         style="stroke-width:0.551275"><tspan
           dx="0"
           dy="0"
           style="font-style:normal;font-variant:normal;font-weight:400;font-size:6.2363px;font-family:等线;fill:#ffffff;stroke-width:0.551275"
           id="tspan25">Maxpool2d</tspan></tspan></text>
    <path
       style="fill:#000000;fill-opacity:1;fill-rule:nonzero;stroke:#000000;stroke-width:0.0259142px;stroke-linecap:butt;stroke-linejoin:round;stroke-miterlimit:4;stroke-dasharray:none;stroke-opacity:1"
       d="m 55.725552,122.04558 v 47.36519 H 43.999003 l 0.217662,-0.19745 v 43.86033 H 43.78134 v -44.05779 h 11.72655 l -0.217662,0.19746 v -47.16774 z m -9.549926,90.38632 -2.176623,3.94916 -2.176623,-3.94916 z"
       id="path26" />
    <path
       style="fill:#000000;fill-opacity:1;fill-rule:nonzero;stroke:#000000;stroke-width:0.0259142px;stroke-linecap:butt;stroke-linejoin:round;stroke-miterlimit:4;stroke-dasharray:none;stroke-opacity:1"
       d="m 72.077436,122.04558 v 8.29323 h 31.588214 l -0.21766,-0.19746 v 4.81304 h 0.43533 v -5.0105 H 72.295098 l 0.217663,0.19747 v -8.09578 z m 29.411604,12.24238 2.17661,3.94916 2.17662,-3.94916 z"
       id="path27" />
    <path
       style="fill:#000000;fill-opacity:1;fill-rule:nonzero;stroke:#000000;stroke-width:0.0259142px;stroke-linecap:butt;stroke-linejoin:round;stroke-miterlimit:4;stroke-dasharray:none;stroke-opacity:1"
       d="m 103.4208,153.24392 v 8.39196 h 41.32862 l -0.21766,-0.19746 v 4.91176 h 0.43531 v -5.10922 h -41.32861 l 0.21766,0.19746 v -8.1945 z m 39.152,12.43985 2.17662,3.94915 2.17662,-3.94915 z"
       id="path28" />
    <path
       style="fill:#000000;fill-opacity:1;fill-rule:nonzero;stroke:#000000;stroke-width:0.0259142px;stroke-linecap:butt;stroke-linejoin:round;stroke-miterlimit:4;stroke-dasharray:none;stroke-opacity:1"
       d="m 86.279888,153.24392 v 31.59326 H 60.10601 l 0.217663,-0.19747 v 28.0884 h -0.435325 v -28.28585 h 26.173878 l -0.217663,0.19745 v -31.39579 z m -23.997254,58.84244 -2.176624,3.94915 -2.176622,-3.94915 z"
       id="path29" />
    <path
       style="fill:#000000;fill-opacity:1;fill-rule:nonzero;stroke:#000000;stroke-width:0.0259142px;stroke-linecap:butt;stroke-linejoin:round;stroke-miterlimit:4;stroke-dasharray:none;stroke-opacity:1"
       d="m 144.99429,184.83718 v 39.29411 H 75.94093 v -0.39492 h 68.83569 l -0.21765,0.19746 v -39.09665 z m -68.345946,41.07123 -4.353246,-1.97458 4.353246,-1.97458 z"
       id="path30" />
    <text
       xml:space="preserve"
       style="font-style:normal;font-variant:normal;font-weight:400;font-size:12.4381px;line-height:125%;font-family:等线;text-align:start;letter-spacing:0px;word-spacing:0px;text-anchor:start;fill:#000000;fill-opacity:1;stroke:none;stroke-width:0.551275"
       x="105.55218"
       y="131.00757"
       id="text31"
       transform="scale(1.0499155,0.95245759)"><tspan
         sodipodi:role="line"
         x="105.55218"
         y="131.00757"
         id="tspan31"
         style="stroke-width:0.551275"><tspan
           dx="0"
           dy="0"
           style="font-style:normal;font-variant:normal;font-weight:400;font-size:12.4381px;font-family:等线;fill:#00b050;stroke-width:0.551275"
           id="tspan30">CV2</tspan></tspan></text>
    <path
       style="fill:#00b050;fill-opacity:1;fill-rule:nonzero;stroke:#00b050;stroke-width:0.0259142px;stroke-linecap:butt;stroke-linejoin:round;stroke-miterlimit:4;stroke-dasharray:none;stroke-opacity:1"
       d="m 38.557445,126.78457 v -3.55424 h 1.305974 v 3.55424 z m 0,-4.73899 v -3.55424 h 1.305974 v 3.55424 z m 0,-4.73899 v -3.55424 h 1.305974 v 3.55424 z m 0,-4.73899 v -3.55423 h 1.305974 v 3.55423 z m 0,-4.73899 v -3.55424 h 1.305974 v 3.55424 z m 0,-4.73898 v -2.96187 h 1.958961 v 1.18474 h -1.305974 l 0.652987,-0.59237 v 2.3695 z m 3.264935,-2.96187 h 3.917921 v 1.18474 H 41.82238 Z m 5.223894,0 h 3.917921 v 1.18474 h -3.917921 z m 5.223895,0 h 3.917921 v 1.18474 h -3.917921 z m 5.223894,0 h 3.917921 v 1.18474 h -3.917921 z m 5.223895,0 h 3.917921 v 1.18474 h -3.917921 z m 5.223895,0 h 3.917921 v 1.18474 h -3.917921 z m 5.223894,0 h 3.91792 v 1.18474 h -3.91792 z m 5.223894,0 h 3.917921 v 1.18474 h -3.917921 z m 5.223895,0 h 3.917921 v 1.18474 h -3.917921 z m 5.223895,0 h 3.917921 v 1.18474 h -3.917921 z m 5.223895,0 h 3.91792 v 1.18474 h -3.91792 z m 5.223892,0 h 3.917922 v 1.18474 h -3.917922 z m 5.223892,0 h 4.57091 v 0.59237 h -1.30598 v 0 l 0.65299,0.59237 h -3.91792 z m 4.57091,1.77712 v 3.55424 h -1.30598 v -3.55424 z m 0,4.73898 v 3.55425 h -1.30598 v -3.55425 z m 0,4.739 v 3.55424 h -1.30598 v -3.55424 z m 0,4.73898 v 3.55425 h -1.30598 v -3.55425 z m 0,4.739 v 3.55423 h -1.30598 v -3.55423 z m 0,4.73898 v 1.77712 h -3.26494 v -1.18474 h 2.61195 l -0.65299,0.59237 v -1.18475 z m -4.57091,1.77712 h -3.91791 v -1.18474 h 3.91791 z m -5.223892,0 h -3.91792 v -1.18474 h 3.91792 z m -5.223892,0 h -3.917922 v -1.18474 h 3.917922 z m -5.223895,0 H 84.91951 v -1.18474 h 3.917921 z m -5.223895,0 h -3.917921 v -1.18474 h 3.917921 z m -5.223895,0 h -3.91792 v -1.18474 h 3.91792 z m -5.223894,0 h -3.917921 v -1.18474 h 3.917921 z m -5.223894,0 h -3.917922 v -1.18474 h 3.917922 z m -5.223895,0 h -3.917921 v -1.18474 h 3.917921 z m -5.223895,0 h -3.91792 v -1.18474 h 3.91792 z m -5.223894,0 h -3.917921 v -1.18474 h 3.917921 z m -5.223895,0 h -3.917921 v -1.18474 h 3.917921 z m -5.223894,0 h -2.611948 v -1.18474 h 2.611948 z"
       id="path31" />
    <text
       xml:space="preserve"
       style="font-style:normal;font-variant:normal;font-weight:400;font-size:12.4381px;line-height:125%;font-family:等线;text-align:start;letter-spacing:0px;word-spacing:0px;text-anchor:start;fill:#000000;fill-opacity:1;stroke:none;stroke-width:0.551275"
       x="132.67024"
       y="163.32698"
       id="text33"
       transform="scale(1.0499155,0.95245759)"><tspan
         sodipodi:role="line"
         x="132.67024"
         y="163.32698"
         id="tspan33"
         style="stroke-width:0.551275"><tspan
           dx="0"
           dy="0"
           style="font-style:normal;font-variant:normal;font-weight:400;font-size:12.4381px;font-family:等线;fill:#00b050;stroke-width:0.551275"
           id="tspan32">CV3</tspan></tspan></text>
    <path
       style="fill:#00b050;fill-opacity:1;fill-rule:nonzero;stroke:#00b050;stroke-width:0.0259142px;stroke-linecap:butt;stroke-linejoin:round;stroke-miterlimit:4;stroke-dasharray:none;stroke-opacity:1"
       d="m 67.288866,157.58799 v -3.55424 h 1.305973 v 3.55424 z m 0,-4.73899 v -3.55424 h 1.305973 v 3.55424 z m 0,-4.73898 v -3.55424 h 1.305973 v 3.55424 z m 0,-4.73899 v -3.55425 h 1.305973 v 3.55425 z m 0,-4.73899 v -3.55425 h 1.305973 v 3.55425 z m 0,-4.73899 v -2.96187 h 1.95896 v 1.18475 h -1.305973 l 0.652986,-0.59237 v 2.36949 z m 3.264934,-2.96187 h 3.917921 v 1.18475 H 70.5538 Z m 5.223895,0 h 3.91792 v 1.18475 h -3.91792 z m 5.223894,0 h 3.917921 v 1.18475 h -3.917921 z m 5.223894,0 h 3.917921 v 1.18475 h -3.917921 z m 5.223895,0 h 3.91792 v 1.18475 h -3.91792 z m 5.223894,0 h 3.917928 v 1.18475 h -3.917928 z m 5.223888,0 h 3.91792 v 1.18475 h -3.91792 z m 5.2239,0 h 3.91791 v 1.18475 h -3.91791 z m 5.22389,0 h 3.91792 v 1.18475 h -3.91792 z m 5.22389,0 h 3.91792 v 1.18475 h -3.91792 z m 5.2239,0 h 3.91793 v 1.18475 h -3.91793 z m 5.22389,0 h 3.91793 v 1.18475 h -3.91793 z m 5.2239,0 h 4.13558 v 0.98729 h -1.30597 v -0.39491 l 0.65298,0.59237 h -3.48259 z m 4.13558,2.17204 v 3.55424 h -1.30597 v -3.55424 z m 0,4.73899 v 3.55424 h -1.30597 v -3.55424 z m 0,4.73899 v 3.55424 h -1.30597 v -3.55424 z m 0,4.73899 v 3.55423 h -1.30597 v -3.55423 z m 0,4.73898 v 3.55424 h -1.30597 v -3.55424 z m 0,4.73899 v 1.3822 h -3.70026 v -1.18475 h 3.04727 l -0.65298,0.59238 v -0.78983 z m -5.00623,1.3822 h -3.91792 v -1.18475 h 3.91792 z m -5.2239,0 h -3.91791 v -1.18475 h 3.91791 z m -5.22389,0 h -3.91792 v -1.18475 h 3.91792 z m -5.22389,0 h -3.91792 v -1.18475 h 3.91792 z m -5.2239,0 h -3.91791 v -1.18475 h 3.91791 z m -5.22389,0 h -3.91792 v -1.18475 h 3.91792 z m -5.22389,0 h -3.917923 v -1.18475 h 3.917923 z m -5.223897,0 h -3.917921 v -1.18475 h 3.917921 z m -5.223895,0 h -3.91792 v -1.18475 h 3.91792 z m -5.223893,0 h -3.917922 v -1.18475 h 3.917922 z m -5.223895,0 h -3.917921 v -1.18475 h 3.917921 z m -5.223895,0 h -3.917921 v -1.18475 h 3.917921 z m -5.223895,0 h -1.741297 v -1.18475 h 1.741297 z"
       id="path33" />
    <text
       xml:space="preserve"
       style="font-style:normal;font-variant:normal;font-weight:400;font-size:12.4381px;line-height:125%;font-family:等线;text-align:start;letter-spacing:0px;word-spacing:0px;text-anchor:start;fill:#000000;fill-opacity:1;stroke:none;stroke-width:0.551275"
       x="172.95757"
       y="197.79312"
       id="text35"
       transform="scale(1.0499155,0.95245759)"><tspan
         sodipodi:role="line"
         x="172.95757"
         y="197.79312"
         id="tspan35"
         style="stroke-width:0.551275"><tspan
           dx="0"
           dy="0"
           style="font-style:normal;font-variant:normal;font-weight:400;font-size:12.4381px;font-family:等线;fill:#00b050;stroke-width:0.551275"
           id="tspan34">CV4</tspan></tspan></text>
    <path
       style="fill:#00b050;fill-opacity:1;fill-rule:nonzero;stroke:#00b050;stroke-width:0.0259142px;stroke-linecap:butt;stroke-linejoin:round;stroke-miterlimit:4;stroke-dasharray:none;stroke-opacity:1"
       d="m 109.51534,190.36599 v -3.55423 h 1.30597 v 3.55423 z m 0,-4.73898 v -3.55424 h 1.30597 v 3.55424 z m 0,-4.73899 v -3.55425 h 1.30597 v 3.55425 z m 0,-4.73899 v -3.55424 h 1.30597 v 3.55424 z m 0,-4.73899 v -3.55424 h 1.30597 v 3.55424 z m 0,-4.73899 v -2.96186 h 1.95896 v 1.18474 h -1.30597 l 0.65298,-0.59237 v 2.36949 z m 3.26494,-2.96186 h 3.91792 v 1.18474 h -3.91792 z m 5.22389,0 h 3.91792 v 1.18474 h -3.91792 z m 5.2239,0 h 3.91791 v 1.18474 h -3.91791 z m 5.22389,0 h 3.91792 v 1.18474 h -3.91792 z m 5.22389,0 h 3.91792 v 1.18474 h -3.91792 z m 5.2239,0 h 3.91792 v 1.18474 h -3.91792 z m 5.22389,0 h 3.91792 v 1.18474 h -3.91792 z m 5.2239,0 h 3.91791 v 1.18474 h -3.91791 z m 5.22389,0 h 3.91793 v 1.18474 h -3.91793 z m 5.22389,0 h 3.91793 v 1.18474 h -3.91793 z m 5.2239,0 h 3.91792 v 1.18474 h -3.91792 z m 5.22389,0 h 3.91793 v 1.18474 h -3.91793 z m 5.2239,0 h 4.13559 v 0.98728 h -1.30598 v -0.39491 l 0.65298,0.59237 h -3.48259 z m 4.13559,2.17203 v 3.55424 h -1.30598 v -3.55424 z m 0,4.73899 v 3.55425 h -1.30598 v -3.55425 z m 0,4.73899 v 3.55424 h -1.30598 v -3.55424 z m 0,4.73899 v 3.55424 h -1.30598 v -3.55424 z m 0,4.73899 v 3.55424 h -1.30598 v -3.55424 z m 0,4.73898 v 1.38221 h -3.70027 v -1.18475 h 3.04727 l -0.65298,0.59237 v -0.78983 z m -5.00624,1.38221 h -3.91792 v -1.18475 h 3.91792 z m -5.2239,0 h -3.91791 v -1.18475 h 3.91791 z m -5.22389,0 h -3.91792 v -1.18475 h 3.91792 z m -5.22389,0 h -3.91792 v -1.18475 h 3.91792 z m -5.2239,0 h -3.91792 v -1.18475 h 3.91792 z m -5.22389,0 h -3.91792 v -1.18475 h 3.91792 z m -5.2239,0 h -3.91791 v -1.18475 h 3.91791 z m -5.22389,0 h -3.91792 v -1.18475 h 3.91792 z m -5.22389,0 h -3.91793 v -1.18475 h 3.91793 z m -5.2239,0 h -3.91792 v -1.18475 h 3.91792 z m -5.22389,0 h -3.91793 v -1.18475 h 3.91793 z m -5.22389,0 h -3.91793 v -1.18475 h 3.91793 z m -5.22391,0 h -1.74129 v -1.18475 h 1.74129 z"
       id="path35" />
    <path
       style="fill:#ed7d31;fill-opacity:1;fill-rule:evenodd;stroke:none;stroke-width:0.551275"
       d="m 15.049921,250.59064 v 15.40171 h 57.027515 v -15.40171 z"
       id="path36" />
    <path
       style="fill:none;stroke:#ae5a21;stroke-width:1.50425px;stroke-linecap:butt;stroke-linejoin:miter;stroke-miterlimit:8;stroke-dasharray:none;stroke-opacity:1"
       clip-path="url(#clipEmfPath1-8)"
       d="m 50.016378,460.67717 h 98.528502 v 29.33291 H 50.016378 Z"
       id="path37"
       transform="matrix(0.57879205,0,0,0.52506589,-13.899163,8.7047632)" />
    <text
       xml:space="preserve"
       style="font-style:normal;font-variant:normal;font-weight:400;font-size:6.2363px;line-height:125%;font-family:等线;text-align:start;letter-spacing:0px;word-spacing:0px;text-anchor:start;fill:#000000;fill-opacity:1;stroke:none;stroke-width:0.551275"
       x="36.626621"
       y="273.48886"
       id="text38"
       transform="scale(1.0499155,0.95245759)"><tspan
         sodipodi:role="line"
         x="36.626621"
         y="273.48886"
         id="tspan38"
         style="stroke-width:0.551275"><tspan
           dx="0"
           dy="0"
           style="font-style:normal;font-variant:normal;font-weight:400;font-size:6.2363px;font-family:等线;fill:#ffffff;stroke-width:0.551275"
           id="tspan37">CBS</tspan></tspan></text>
    <text
       xml:space="preserve"
       style="font-style:normal;font-variant:normal;font-weight:400;font-size:12.4381px;line-height:125%;font-family:等线;text-align:start;letter-spacing:0px;word-spacing:0px;text-anchor:start;fill:#000000;fill-opacity:1;stroke:none;stroke-width:0.551275"
       x="77.072891"
       y="282.64966"
       id="text40"
       transform="scale(1.0499155,0.95245759)"><tspan
         sodipodi:role="line"
         x="77.072891"
         y="282.64966"
         id="tspan40"
         style="stroke-width:0.551275"><tspan
           dx="0"
           dy="0"
           style="font-style:normal;font-variant:normal;font-weight:400;font-size:12.4381px;font-family:等线;fill:#00b050;stroke-width:0.551275"
           id="tspan39">CV5</tspan></tspan></text>
    <path
       style="fill:#00b050;fill-opacity:1;fill-rule:nonzero;stroke:#00b050;stroke-width:0.0470079px;stroke-linecap:butt;stroke-linejoin:round;stroke-miterlimit:4;stroke-dasharray:none;stroke-opacity:1"
       clip-path="url(#clipEmfPath1-8)"
       d="m 39.486614,499.41165 v -6.76913 h 2.256378 v 6.76913 z m 0,-9.02551 v -6.76913 h 2.256378 v 6.76913 z m 0,-9.02551 v -6.76913 h 2.256378 v 6.76913 z m 0,-9.02551 v -6.76914 h 2.256378 v 6.76914 z m 0,-9.02551 v -6.76914 h 2.256378 v 6.76914 z m 0,-9.02552 v -4.88881 h 4.136693 v 2.25637 h -3.008504 l 1.128189,-1.12819 v 3.76063 z m 6.393071,-4.88881 h 6.769134 v 2.25637 h -6.769134 z m 9.025512,0 h 6.769134 v 2.25637 h -6.769134 z m 9.025512,0 h 6.769134 v 2.25637 h -6.769134 z m 9.025511,0 h 6.769134 v 2.25637 H 72.95622 Z m 9.025512,0 h 6.769134 v 2.25637 h -6.769134 z m 9.025512,0 h 6.769134 v 2.25637 h -6.769134 z m 9.025516,0 h 6.76913 v 2.25637 h -6.76913 z m 9.02551,0 h 6.76913 v 2.25637 h -6.76913 z m 9.02551,0 h 6.76913 v 2.25637 h -6.76913 z m 9.02551,0 h 6.76914 v 2.25637 h -6.76914 z m 9.02551,0 h 6.76914 v 2.25637 h -6.76914 z m 9.02551,0 h 6.76914 v 2.25637 h -6.76914 z m 9.02552,0 h 6.39307 v 2.63244 h -2.25638 v -1.50426 l 1.12819,1.12819 h -5.26488 z m 6.39307,4.88881 v 6.76914 h -2.25638 v -6.76914 z m 0,9.02552 v 6.76913 h -2.25638 v -6.76913 z m 0,9.02551 v 6.76913 h -2.25638 v -6.76913 z m 0,9.02551 v 6.76913 h -2.25638 v -6.76913 z m 0,9.02551 v 6.76914 h -2.25638 v -6.76914 z m -1.12819,10.1537 h -6.76914 v -2.25638 h 6.76914 z m -9.02551,0 h -6.76914 v -2.25638 h 6.76914 z m -9.02551,0 h -6.76914 v -2.25638 h 6.76914 z m -9.02552,0 h -6.76913 v -2.25638 h 6.76913 z m -9.02551,0 h -6.76913 v -2.25638 h 6.76913 z m -9.02551,0 h -6.76913 v -2.25638 h 6.76913 z m -9.02551,0 h -6.769136 v -2.25638 h 6.769136 z m -9.025514,0 h -6.769134 v -2.25638 h 6.769134 z m -9.025512,0 H 80.47748 v -2.25638 h 6.769134 z m -9.025512,0 h -6.769133 v -2.25638 h 6.769133 z m -9.025511,0 h -6.769134 v -2.25638 h 6.769134 z m -9.025512,0 h -6.769134 v -2.25638 h 6.769134 z m -9.025512,0 h -6.769134 v -2.25638 h 6.769134 z m -9.025512,0 h -1.504252 v -2.25638 h 1.504252 z"
       id="path40"
       transform="matrix(0.57879205,0,0,0.52506589,-13.899163,8.7047632)" />
    <path
       style="fill:#000000;fill-opacity:1;fill-rule:nonzero;stroke:#000000;stroke-width:0.0259142px;stroke-linecap:butt;stroke-linejoin:round;stroke-miterlimit:4;stroke-dasharray:none;stroke-opacity:1"
       d="m 44.27107,231.43723 v 9.97162 h -0.272067 l 0.217662,-0.19745 v 6.46674 H 43.78134 v -6.66421 h 0.272067 l -0.217662,0.19747 v -9.77417 z m 1.904556,15.57448 -2.176623,3.94916 -2.176623,-3.94916 z"
       id="path41" />
  </g>
</svg>
